<svg width="212" height="46" viewBox="0 0 212 46" fill="none" xmlns="http://www.w3.org/2000/svg">
<path d="M144.951 24.6165V45.9846H211.094V24.6165H144.951ZM159.925 32.6905H158.376V30.2776H150.548V32.6036L159.295 35.7918C159.754 35.9522 159.925 36.2396 159.925 36.7275V40.3769C159.925 40.8447 159.643 41.1455 159.184 41.1455H149.741C149.282 41.1455 149 40.8447 149 40.3769V37.0283H150.548V39.7285H158.376V36.9681L149.63 33.7666C149.144 33.5861 149 33.3321 149 32.8308V29.6293C149 29.1681 149.282 28.8607 149.741 28.8607H159.203C159.643 28.8607 159.925 29.1481 159.925 29.6293V32.6905ZM165.437 41.1455H163.888V28.8607H165.437V41.1455ZM180.247 30.3044H175.116V41.1455H173.567V30.3044H168.436V28.8607H180.247V30.3044ZM193.574 41.1455H183.233V28.8607H193.469V30.3044H184.781V34.181H191.934V35.5645H184.781V39.7018H193.574V41.1455ZM207.774 32.6905H206.225V30.2776H198.397V32.6036L207.144 35.7918C207.597 35.9522 207.774 36.2396 207.774 36.7275V40.3769C207.774 40.8447 207.492 41.1455 207.032 41.1455H197.59C197.131 41.1455 196.849 40.8447 196.849 40.3769V37.0283H198.397V39.7285H206.225V36.9681L197.478 33.7666C196.986 33.5861 196.849 33.3321 196.849 32.8308V29.6293C196.849 29.1681 197.131 28.8607 197.59 28.8607H207.046C207.492 28.8607 207.774 29.1481 207.774 29.6293V32.6905Z" fill="#54B244"/>
<path d="M30.2434 13.9692H36.5296L33.3865 7.29871L30.2434 13.9692Z" fill="black"/>
<path d="M71.3206 12.9866H77.6068L74.4637 19.7105L71.3206 12.9866Z" fill="black"/>
<path d="M13.3533 0.140359H0V20.5594H13.3533C17.7104 20.5594 19.6527 18.581 19.6527 14.1429V6.55013C19.6527 2.11208 17.7104 0.133675 13.3533 0.133675M17.0805 14.1496C17.0805 16.8231 15.9781 18.1599 13.3533 18.1599H2.57224V2.54653H13.3599C15.9846 2.54653 17.087 3.88329 17.087 6.55681V14.1496H17.0805Z" fill="black"/>
<path d="M63.7681 0.140358H44.1416V2.54653H52.6654V20.5661H55.2377V2.54653H63.7681V0.140358Z" fill="black"/>
<path d="M108.356 11.7702L105.101 9.92545L108.119 8.13419C108.723 7.81337 108.907 7.49254 108.907 6.79743V1.42365C108.907 0.648327 108.434 0.140358 107.7 0.140358H90.1729V20.5594H107.909C108.671 20.5594 109.143 20.0514 109.143 19.2761V13.0735C109.143 12.3517 108.933 12.0843 108.356 11.7635M92.7385 2.49306H106.328V6.69049L102.916 8.77583H92.732V2.49306H92.7385ZM106.571 18.2134H92.7451V11.0483H102.929L106.577 13.1871V18.2134H106.571Z" fill="black"/>
<path d="M131.001 12.3049C131.736 12.3049 132.208 11.8236 132.208 11.0483V1.42365C132.208 0.648327 131.736 0.140358 131.001 0.140358H113.763V20.5594H116.335V2.54653H129.636V10.0057H119.531V11.7434L130.056 20.5661H133.625V20.4057L123.73 12.3049H131.001Z" fill="black"/>
<path d="M140.555 0.140358H137.982V20.5594H140.555V0.140358Z" fill="black"/>
<path d="M158.554 0.140359H145.2V20.5594H158.554C162.911 20.5594 164.853 18.581 164.853 14.1429V6.55013C164.853 2.11208 162.911 0.133675 158.554 0.133675M162.281 14.1496C162.281 16.8231 161.179 18.1599 158.554 18.1599H147.766V2.54653H158.554C161.179 2.54653 162.281 3.88329 162.281 6.55681V14.1496Z" fill="black"/>
<path d="M187.498 0.140358H170.549C169.788 0.140358 169.315 0.648327 169.315 1.42365V19.2761C169.315 20.0514 169.788 20.5594 170.523 20.5594H187.498C188.259 20.5594 188.732 20.0514 188.732 19.2761V9.83856H178.968V12.1378H186.159V18.1532H171.887V2.54653H186.159V6.44987H188.732V1.42365C188.732 0.648327 188.259 0.140358 187.498 0.140358Z" fill="black"/>
<path d="M195.845 18.1599V11.2889H207.735V8.98972H195.845V2.54653H210.281V0.140358H193.272V20.5661H210.464V18.1599H195.845Z" fill="black"/>
<path d="M44.5351 20.5059V20.5661H41.8316L39.8106 16.1748H39.804L35.2042 6.23599L33.4325 2.3928L31.2146 7.20514L27.0609 16.1748H27.0544L25.0333 20.5661H22.3298V20.5059L32.0414 0H34.8236L44.5351 20.5059Z" fill="black"/>
<path d="M85.6516 20.5059V20.5661H82.9481L80.9336 16.1748H80.9271L76.3272 6.23599L74.5555 2.3928L72.3376 7.20514L68.184 16.1748H68.1774L66.1564 20.5661H63.4529V20.5059L73.1644 0H75.9466L85.6516 20.5059Z" fill="black"/>
</svg>
